<svg width="132" height="73" viewBox="0 0 132 73" fill="none" xmlns="http://www.w3.org/2000/svg">
<path d="M4.52165 45.6724L0.173828 36.6724H4.52165H8.86948L13.2173 45.6724L8.86948 54.6724H4.52165H0.173828L4.52165 45.6724Z" fill="white" fill-opacity="0.06"/>
<path d="M20.3478 45.6724L16 36.6724H20.3478H24.6957L29.0435 45.6724L24.6957 54.6724H20.3478H16L20.3478 45.6724Z" fill="white" fill-opacity="0.06"/>
<path d="M36.174 45.6724L31.8262 36.6724H36.174H40.5218L44.8697 45.6724L40.5218 54.6724H36.174H31.8262L36.174 45.6724Z" fill="white" fill-opacity="0.06"/>
<path d="M52.0002 45.6724L47.6523 36.6724H52.0002H56.348L60.6958 45.6724L56.348 54.6724H52.0002H47.6523L52.0002 45.6724Z" fill="white" fill-opacity="0.06"/>
<path d="M67.8259 45.6724L63.478 36.6724H67.8259H72.1737L76.5215 45.6724L72.1737 54.6724H67.8259H63.478L67.8259 45.6724Z" fill="white" fill-opacity="0.06"/>
<path d="M83.652 45.6724L79.3042 36.6724H83.652H87.9999L92.3477 45.6724L87.9999 54.6724H83.652H79.3042L83.652 45.6724Z" fill="white" fill-opacity="0.06"/>
<path d="M99.4782 45.6724L95.1304 36.6724H99.4782H103.826L108.174 45.6724L103.826 54.6724H99.4782H95.1304L99.4782 45.6724Z" fill="white" fill-opacity="0.06"/>
<path d="M115.304 45.6724L110.957 36.6724H115.304H119.652L124 45.6724L119.652 54.6724H115.304H110.957L115.304 45.6724Z" fill="white" fill-opacity="0.06"/>
<path d="M12.3478 27.6724L8 18.6724H12.3478H16.6957L21.0435 27.6724L16.6957 36.6724H12.3478H8L12.3478 27.6724Z" fill="white" fill-opacity="0.06"/>
<path d="M28.174 27.6724L23.8262 18.6724H28.174H32.5218L36.8697 27.6724L32.5218 36.6724H28.174H23.8262L28.174 27.6724Z" fill="white" fill-opacity="0.06"/>
<path d="M44.0002 27.6724L39.6523 18.6724H44.0002H48.348L52.6958 27.6724L48.348 36.6724H44.0002H39.6523L44.0002 27.6724Z" fill="white" fill-opacity="0.06"/>
<path d="M59.8263 27.6724L55.4785 18.6724H59.8263H64.1742L68.522 27.6724L64.1742 36.6724H59.8263H55.4785L59.8263 27.6724Z" fill="white" fill-opacity="0.06"/>
<path d="M75.652 27.6724L71.3042 18.6724H75.652H79.9999L84.3477 27.6724L79.9999 36.6724H75.652H71.3042L75.652 27.6724Z" fill="white" fill-opacity="0.06"/>
<path d="M91.4782 27.6724L87.1304 18.6724H91.4782H95.826L100.174 27.6724L95.826 36.6724H91.4782H87.1304L91.4782 27.6724Z" fill="white" fill-opacity="0.06"/>
<path d="M107.304 27.6724L102.957 18.6724H107.304H111.652L116 27.6724L111.652 36.6724H107.304H102.957L107.304 27.6724Z" fill="white" fill-opacity="0.06"/>
<path d="M123.131 27.6724L118.783 18.6724H123.131H127.478L131.826 27.6724L127.478 36.6724H123.131H118.783L123.131 27.6724Z" fill="white" fill-opacity="0.06"/>
<path d="M4.34783 9.67236L0 0.672363H4.34783H8.69565L13.0435 9.67236L8.69565 18.6724H4.34783H0L4.34783 9.67236Z" fill="white" fill-opacity="0.06"/>
<path d="M20.174 9.67236L15.8262 0.672363H20.174H24.5218L28.8697 9.67236L24.5218 18.6724H20.174H15.8262L20.174 9.67236Z" fill="white" fill-opacity="0.06"/>
<path d="M36.0002 9.67236L31.6523 0.672363H36.0002H40.348L44.6958 9.67236L40.348 18.6724H36.0002H31.6523L36.0002 9.67236Z" fill="white" fill-opacity="0.06"/>
<path d="M51.8259 9.67236L47.478 0.672363H51.8259H56.1737L60.5215 9.67236L56.1737 18.6724H51.8259H47.478L51.8259 9.67236Z" fill="white" fill-opacity="0.06"/>
<path d="M67.652 9.67236L63.3042 0.672363H67.652H71.9999L76.3477 9.67236L71.9999 18.6724H67.652H63.3042L67.652 9.67236Z" fill="white" fill-opacity="0.06"/>
<path d="M83.4782 9.67236L79.1304 0.672363H83.4782H87.826L92.1739 9.67236L87.826 18.6724H83.4782H79.1304L83.4782 9.67236Z" fill="white" fill-opacity="0.06"/>
<path d="M99.3044 9.67236L94.9565 0.672363H99.3044H103.652L108 9.67236L103.652 18.6724H99.3044H94.9565L99.3044 9.67236Z" fill="white" fill-opacity="0.06"/>
<path d="M115.131 9.67236L110.783 0.672363H115.131H119.478L123.826 9.67236L119.478 18.6724H115.131H110.783L115.131 9.67236Z" fill="white" fill-opacity="0.06"/>
<path d="M12.5217 63.6724L8.17383 54.6724H12.5217H16.8695L21.2173 63.6724L16.8695 72.6724H12.5217H8.17383L12.5217 63.6724Z" fill="white" fill-opacity="0.06"/>
<path d="M28.3478 63.6724L24 54.6724H28.3478H32.6957L37.0435 63.6724L32.6957 72.6724H28.3478H24L28.3478 63.6724Z" fill="white" fill-opacity="0.06"/>
<path d="M44.174 63.6724L39.8262 54.6724H44.174H48.5218L52.8697 63.6724L48.5218 72.6724H44.174H39.8262L44.174 63.6724Z" fill="white" fill-opacity="0.06"/>
<path d="M60.0002 63.6724L55.6523 54.6724H60.0002H64.348L68.6958 63.6724L64.348 72.6724H60.0002H55.6523L60.0002 63.6724Z" fill="white" fill-opacity="0.06"/>
<path d="M75.8259 63.6724L71.478 54.6724H75.8259H80.1737L84.5215 63.6724L80.1737 72.6724H75.8259H71.478L75.8259 63.6724Z" fill="white" fill-opacity="0.06"/>
<path d="M91.652 63.6724L87.3042 54.6724H91.652H95.9999L100.348 63.6724L95.9999 72.6724H91.652H87.3042L91.652 63.6724Z" fill="white" fill-opacity="0.06"/>
<path d="M107.478 63.6724L103.13 54.6724H107.478H111.826L116.174 63.6724L111.826 72.6724H107.478H103.13L107.478 63.6724Z" fill="white" fill-opacity="0.06"/>
<path d="M123.304 63.6724L118.957 54.6724H123.304H127.652L132 63.6724L127.652 72.6724H123.304H118.957L123.304 63.6724Z" fill="white" fill-opacity="0.06"/>
</svg>
