<svg width="25" height="24" viewBox="0 0 25 24" fill="none" xmlns="http://www.w3.org/2000/svg">
<path d="M12.6553 2C11.8596 2 11.0966 2.31607 10.534 2.87868C9.97134 3.44129 9.65527 4.20435 9.65527 5V12C9.65527 12.7956 9.97134 13.5587 10.534 14.1213C11.0966 14.6839 11.8596 15 12.6553 15C13.4509 15 14.214 14.6839 14.7766 14.1213C15.3392 13.5587 15.6553 12.7956 15.6553 12V5C15.6553 4.20435 15.3392 3.44129 14.7766 2.87868C14.214 2.31607 13.4509 2 12.6553 2Z" stroke="white" stroke-width="2" stroke-linecap="round" stroke-linejoin="round"/>
<path d="M19.6553 10V12C19.6553 13.8565 18.9178 15.637 17.605 16.9497C16.2923 18.2625 14.5118 19 12.6553 19C10.7988 19 9.01828 18.2625 7.70553 16.9497C6.39277 15.637 5.65527 13.8565 5.65527 12V10" stroke="white" stroke-width="2" stroke-linecap="round" stroke-linejoin="round"/>
<path d="M12.6553 19V22" stroke="white" stroke-width="2" stroke-linecap="round" stroke-linejoin="round"/>
</svg>
