<svg width="110" height="107" viewBox="0 0 110 107" fill="none" xmlns="http://www.w3.org/2000/svg">
<ellipse cx="102.585" cy="65.8396" rx="1.23595" ry="1.21925" fill="#231F20"/>
<ellipse cx="6.1798" cy="64.6204" rx="1.23595" ry="1.21925" fill="#231F20"/>
<path d="M12.409 52.6405L0.561035 51.5415L1.02135 46.7121C1.03218 46.5985 1.05159 46.4529 1.07958 46.2754C1.10208 46.0973 1.13427 45.9338 1.17614 45.7848C1.34482 45.1181 1.62558 44.5819 2.01841 44.1762C2.41175 43.765 2.88725 43.4789 3.44492 43.3177C3.99761 43.1506 4.60032 43.0973 5.25306 43.1579C5.90031 43.2179 6.48239 43.3811 6.99931 43.6474C7.51074 43.9132 7.92084 44.2842 8.2296 44.7605C8.53887 45.2313 8.71364 45.8071 8.75391 46.4877C8.76141 46.6413 8.76188 46.8105 8.75531 46.9955C8.74926 47.1751 8.74108 47.319 8.73076 47.4272L8.4569 50.3005L12.5955 50.6844L12.409 52.6405ZM6.60565 50.1288L6.87178 47.3367C6.88209 47.2285 6.88821 47.1062 6.89014 46.9699C6.89206 46.8336 6.88198 46.7071 6.8599 46.5904C6.80857 46.2582 6.68745 45.9903 6.49655 45.787C6.30617 45.5783 6.08294 45.4239 5.82687 45.3237C5.57132 45.2181 5.31738 45.1536 5.06507 45.1302C4.81275 45.1068 4.55108 45.1235 4.28005 45.1802C4.00406 45.231 3.75282 45.3415 3.52633 45.5115C3.30036 45.6762 3.13076 45.917 3.01754 46.234C2.97379 46.3446 2.94273 46.4673 2.92435 46.6021C2.90049 46.7363 2.8834 46.8576 2.87308 46.9658L2.60696 49.7579L6.60565 50.1288Z" fill="black"/>
<path d="M15.698 35.3211L5.72607 28.9146L8.40949 24.8499C8.47263 24.7542 8.55842 24.6342 8.66687 24.4899C8.77071 24.3426 8.87626 24.2126 8.98353 24.0999C9.44707 23.5869 9.94835 23.2409 10.4873 23.0619C11.0294 22.8782 11.5852 22.843 12.1549 22.956C12.723 23.0615 13.2817 23.2908 13.8311 23.6437C14.6436 24.1657 15.2092 24.8178 15.528 25.5998C15.8421 26.3788 15.7918 27.2318 15.377 28.1588L14.9748 28.9025L13.3017 31.4369L16.7849 33.6747L15.698 35.3211ZM19.4277 29.6715L14.0889 29.0046L14.8199 27.0906L20.659 27.8066L19.4277 29.6715ZM11.7435 30.4359L13.295 28.0859C13.3551 27.9948 13.4181 27.8894 13.4841 27.7696C13.55 27.6498 13.6007 27.5332 13.6361 27.4197C13.7473 27.102 13.7662 26.8093 13.693 26.5418C13.6228 26.2697 13.498 26.0306 13.3185 25.8244C13.142 25.6138 12.9475 25.4402 12.7352 25.3038C12.5228 25.1673 12.2833 25.0621 12.0166 24.988C11.7483 24.9064 11.4738 24.889 11.1931 24.9357C10.9155 24.9778 10.6518 25.1133 10.4022 25.342C10.3113 25.4199 10.226 25.5143 10.1462 25.6252C10.0618 25.7331 9.98956 25.8326 9.92943 25.9237L8.37801 28.2737L11.7435 30.4359Z" fill="black"/>
<path d="M31.4485 18.1002C30.5321 18.8493 29.5821 19.2941 28.5984 19.4348C27.6111 19.5713 26.6444 19.4298 25.6983 19.0104C24.7563 18.5875 23.8934 17.9095 23.1095 16.9763C22.3256 16.043 21.8105 15.0806 21.5643 14.089C21.3223 13.094 21.3627 12.1327 21.6856 11.2053C22.0049 10.2737 22.6228 9.4334 23.5391 8.68436C24.4554 7.93532 25.4071 7.49256 26.3944 7.35608C27.3824 7.21195 28.3473 7.35133 29.2893 7.7742C30.2354 8.19362 31.1005 8.86993 31.8844 9.80315C32.6683 10.7364 33.1812 11.7005 33.4232 12.6956C33.6695 13.6872 33.6308 14.6505 33.3072 15.5856C32.9843 16.513 32.3648 17.3512 31.4485 18.1002ZM30.2515 16.6753C30.8701 16.1767 31.2688 15.6249 31.4476 15.02C31.6306 14.4116 31.6165 13.7772 31.4053 13.117C31.1984 12.4532 30.8172 11.7908 30.2618 11.1296C29.7064 10.4684 29.1208 9.98001 28.5052 9.66449C27.8903 9.34132 27.2628 9.21191 26.6228 9.27627C25.9871 9.33716 25.3582 9.61484 24.736 10.1093C24.1174 10.6079 23.7187 11.1597 23.5399 11.7646C23.3612 12.3696 23.3753 13.0039 23.5822 13.6676C23.7934 14.3279 24.1767 14.9886 24.7321 15.6498C25.2875 16.311 25.8727 16.8032 26.4876 17.1264C27.099 17.4454 27.7226 17.5744 28.3583 17.5135C28.9983 17.4492 29.6294 17.1698 30.2515 16.6753Z" fill="black"/>
<path d="M47.3162 13.473L42.248 2.20972L44.2842 1.98751L48.5269 11.4207L50.565 1.30207L52.6012 1.07986L50.2144 13.1567L47.3162 13.473Z" fill="black"/>
<path d="M63.5742 12.3767L66.5845 1.01904L74.0201 2.93689L73.5477 4.71941L68.0389 3.29855L67.2968 6.09852L71.8461 7.27191L71.3737 9.05443L66.8243 7.88104L65.9735 11.0911L71.4823 12.512L71.0098 14.2945L63.5742 12.3767Z" fill="black"/>
<path d="M77.5568 16.2988L86.1699 8.19824L89.5629 11.709C89.6427 11.7917 89.7414 11.9016 89.8589 12.0389C89.9803 12.1725 90.0843 12.3037 90.1708 12.4326C90.5703 12.9956 90.7964 13.5564 90.8491 14.115C90.9056 14.6776 90.8126 15.2194 90.5701 15.7403C90.3354 16.2614 89.9808 16.7451 89.5062 17.1914C88.8044 17.8515 88.0311 18.2446 87.1864 18.3708C86.3456 18.4932 85.5156 18.2488 84.6965 17.6375L84.0553 17.0804L81.9397 14.8913L78.9311 17.7209L77.5568 16.2988ZM82.2727 21.1786L84.1583 16.2063L85.8784 17.3482L83.8295 22.7894L82.2727 21.1786ZM83.2855 13.6256L85.2472 15.6553C85.3232 15.734 85.4127 15.8188 85.5157 15.9096C85.6187 16.0005 85.7221 16.0759 85.8259 16.136C86.1138 16.3158 86.3982 16.4013 86.6789 16.3925C86.9635 16.3877 87.2281 16.3228 87.4728 16.1979C87.7212 16.0769 87.9371 15.9301 88.1205 15.7576C88.304 15.5851 88.4629 15.3793 88.5972 15.1403C88.7394 14.9015 88.8197 14.6419 88.8382 14.3618C88.8605 14.0855 88.7875 13.8012 88.6192 13.509C88.5633 13.4039 88.4898 13.3003 88.3987 13.1982C88.3117 13.0923 88.2301 13.0001 88.1541 12.9214L86.1924 10.8916L83.2855 13.6256Z" fill="black"/>
<path d="M89.1986 30.617L98.8706 23.7776L101.62 27.561C102.088 28.2059 102.34 28.8272 102.374 29.4248C102.416 30.0237 102.306 30.5666 102.043 31.0535C101.783 31.5448 101.436 31.9441 101.001 32.2512C100.469 32.628 99.9248 32.8219 99.3702 32.8329C98.8188 32.8484 98.3225 32.6878 97.8813 32.3511L98.2171 32.1137C98.5148 32.8126 98.5566 33.4718 98.3425 34.0913C98.1315 34.7152 97.7462 35.2251 97.1865 35.6209C96.6133 36.0262 96.0332 36.2726 95.446 36.3601C94.8589 36.4477 94.2887 36.3627 93.7356 36.1052C93.1857 35.8521 92.6828 35.412 92.227 34.7847L89.1986 30.617ZM91.8981 31.1556L93.6073 33.5078C93.8095 33.7861 94.0468 33.996 94.3192 34.1378C94.5961 34.2763 94.8825 34.3346 95.1784 34.3126C95.4819 34.2919 95.777 34.1802 96.0635 33.9775C96.3233 33.7939 96.516 33.574 96.6417 33.3179C96.7674 33.0619 96.8137 32.7851 96.7806 32.4875C96.7519 32.1868 96.63 31.8885 96.4149 31.5926L94.672 29.194L91.8981 31.1556ZM96.1833 28.1253L97.7432 30.2721C97.9101 30.5018 98.1042 30.6756 98.3253 30.7933C98.5465 30.9111 98.7829 30.9613 99.0346 30.9438C99.2862 30.9263 99.5397 30.8273 99.7949 30.6469C100.131 30.4094 100.334 30.1055 100.403 29.7351C100.473 29.3648 100.37 28.9896 100.094 28.6098L98.5341 26.463L96.1833 28.1253Z" fill="black"/>
<path d="M96.4142 52.2562C96.2448 51.4139 96.2407 50.6251 96.4018 49.8899C96.564 49.1601 96.8767 48.5226 97.3401 47.9776C97.8099 47.4369 98.4139 47.0334 99.1523 46.767L99.8623 48.7059C99.2049 49.0118 98.7401 49.4657 98.4679 50.0675C98.1968 50.6746 98.131 51.3247 98.2703 52.0177C98.3528 52.4282 98.4954 52.802 98.698 53.1391C98.9006 53.4763 99.1487 53.7325 99.4423 53.9077C99.7369 54.0883 100.065 54.1432 100.427 54.0724C100.59 54.0407 100.733 53.9849 100.857 53.9052C100.987 53.8244 101.095 53.7201 101.182 53.5923C101.27 53.4699 101.34 53.3176 101.393 53.1354C101.453 52.9575 101.494 52.7556 101.516 52.5296L101.809 49.3804C101.834 49.1097 101.878 48.813 101.942 48.4901C102.013 48.1715 102.132 47.8573 102.3 47.5474C102.475 47.2417 102.718 46.9698 103.029 46.7315C103.347 46.4975 103.763 46.3303 104.276 46.2298C105.027 46.0829 105.695 46.1463 106.278 46.42C106.867 46.6981 107.353 47.1295 107.734 47.7142C108.117 48.3042 108.384 48.9889 108.535 49.7683C108.688 50.5584 108.692 51.289 108.546 51.9603C108.405 52.6305 108.123 53.2232 107.698 53.7385C107.274 54.2537 106.72 54.6669 106.035 54.9781L105.254 52.9784C105.648 52.8127 105.963 52.5793 106.2 52.278C106.444 51.981 106.606 51.6418 106.686 51.2603C106.768 50.8842 106.774 50.4978 106.706 50.1012C106.634 49.7163 106.503 49.3707 106.312 49.0645C106.128 48.7626 105.902 48.5326 105.634 48.3744C105.368 48.2215 105.083 48.1747 104.78 48.2339C104.494 48.29 104.276 48.4213 104.127 48.6278C103.983 48.8333 103.882 49.0719 103.824 49.3436C103.773 49.6196 103.738 49.8951 103.721 50.17L103.552 52.3474C103.533 52.6447 103.494 52.982 103.435 53.3592C103.376 53.7365 103.263 54.1104 103.096 54.4811C102.929 54.8517 102.677 55.178 102.341 55.46C102.005 55.7472 101.546 55.9479 100.962 56.0621C100.357 56.1806 99.7995 56.1594 99.2898 55.9988C98.7865 55.8424 98.3413 55.5832 97.954 55.2212C97.5666 54.8593 97.2427 54.4212 96.982 53.9071C96.7224 53.3982 96.5332 52.848 96.4142 52.2562Z" fill="black"/>
<path d="M13.6606 88.986L19.7672 81.5173L17.1744 81.1824L18.5545 79.4945L21.1318 79.8485L22.7141 81.1075L15.243 90.2451L13.6606 88.986Z" fill="black"/>
<path d="M38.314 103.906C37.5762 103.666 36.9686 103.28 36.4912 102.747C36.0207 102.21 35.7146 101.581 35.5727 100.86C35.4309 100.139 35.4919 99.3832 35.7558 98.5934L36.8889 95.2022C37.1718 94.3556 37.5876 93.6754 38.1364 93.1614C38.6904 92.6491 39.3331 92.323 40.0643 92.1831C40.8008 92.0449 41.5798 92.1093 42.4013 92.3765C42.9717 92.5619 43.4813 92.8335 43.9303 93.1912C44.381 93.5438 44.7362 93.9912 44.9959 94.5334L43.193 95.3979C43.0718 95.1009 42.8897 94.8386 42.6467 94.6108C42.409 94.3847 42.1332 94.2206 41.8192 94.1186C41.3797 93.9756 40.9606 93.9538 40.562 94.0531C40.1651 94.1472 39.8199 94.3297 39.5264 94.6005C39.2381 94.873 39.031 95.1976 38.9051 95.5745L38.2868 97.4249L38.0656 96.941C38.5142 96.6748 39.0006 96.5125 39.5248 96.4541C40.0508 96.3905 40.5623 96.4395 41.0594 96.6011C41.771 96.8325 42.3454 97.1967 42.7826 97.6937C43.2216 98.1855 43.5058 98.7586 43.6352 99.413C43.7663 100.062 43.7146 100.738 43.4801 101.44C43.2472 102.137 42.8554 102.71 42.3047 103.161C41.7609 103.608 41.1373 103.903 40.4339 104.046C39.7323 104.184 39.0256 104.137 38.314 103.906ZM38.9116 102.117C39.2779 102.237 39.6412 102.26 40.0016 102.189C40.3638 102.112 40.6829 101.955 40.9591 101.719C41.2423 101.479 41.4443 101.178 41.565 100.817C41.6857 100.456 41.7071 100.097 41.6293 99.7393C41.5514 99.382 41.39 99.0663 41.1452 98.7922C40.9073 98.5145 40.6052 98.3162 40.239 98.1971C39.8727 98.078 39.5076 98.0594 39.1438 98.1414C38.7817 98.2182 38.4616 98.3774 38.1837 98.6189C37.9058 98.8604 37.7064 99.1619 37.5857 99.5232C37.4684 99.8742 37.4461 100.227 37.5187 100.583C37.5983 100.935 37.7571 101.25 37.995 101.528C38.2398 101.802 38.5454 101.998 38.9116 102.117Z" fill="black"/>
<path d="M64.0513 104.658L63.5687 102.701L65.5521 102.225L66.0346 104.182L64.0513 104.658ZM62.9478 100.115L62.4653 98.1583L64.4486 97.6822L64.9312 99.6388L62.9478 100.115Z" fill="black"/>
<path d="M93.2181 91.6129C92.8296 92.0575 92.3751 92.4028 91.8545 92.649C91.3339 92.8951 90.7852 93.0277 90.2085 93.0468C89.6354 93.0617 89.074 92.9466 88.5243 92.7016L89.3872 90.9276C89.836 91.1298 90.2772 91.1785 90.7107 91.0736C91.1437 90.961 91.502 90.7383 91.7856 90.4054C92.041 90.1132 92.2006 89.7932 92.2643 89.4456C92.328 89.0979 92.3006 88.7589 92.182 88.4285C92.0593 88.0945 91.8519 87.8033 91.5598 87.5549C91.1133 87.1752 90.6157 86.9996 90.067 87.0281C89.5184 87.0567 89.048 87.2953 88.6559 87.744C88.5372 87.8798 88.439 88.0296 88.3615 88.1933C88.2875 88.3528 88.2318 88.5207 88.1942 88.6968L86.4114 88.3647L86.4316 83.1724L86.9079 83.3515L83.2118 87.5812L81.7909 86.373L86.5554 80.9206L87.9826 82.1342L88.2246 86.527L87.7694 86.1614C88.2782 85.6541 88.8316 85.3246 89.4296 85.173C90.0312 85.0172 90.6309 85.0177 91.2286 85.1744C91.8299 85.327 92.381 85.6162 92.8817 86.042C93.4492 86.5246 93.8378 87.0955 94.0475 87.7545C94.2608 88.4095 94.2974 89.0792 94.1574 89.7638C94.0168 90.4408 93.7038 91.0571 93.2181 91.6129Z" fill="black"/>
</svg>
